HIERARCHY
ROOT root
{
	OFFSET 0.000000 0.000000 0.000000
	CHANNELS 6 Xposition Yposition Zposition Zrotation Yrotation Xrotation
	JOINT lhip
	{
		OFFSET 0.058581 -0.082280 -0.017664
		CHANNELS 3 Zrotation Yrotation Xrotation
		JOINT lknee
		{
			OFFSET 0.043451 -0.386469 0.008037
			CHANNELS 3 Zrotation Yrotation Xrotation
			JOINT lankle
			{
				OFFSET -0.014790 -0.426874 -0.037428
				CHANNELS 3 Zrotation Yrotation Xrotation
				JOINT ltoe
				{
					OFFSET 0.041054 -0.060286 0.122042
					CHANNELS 3 Zrotation Yrotation Xrotation
					End Site
					{
						OFFSET 0.000000 0.000000 0.000000
					}
				}
			}
		}
	}
	JOINT rhip
	{
		OFFSET -0.060310 -0.090513 -0.013543
		CHANNELS 3 Zrotation Yrotation Xrotation
		JOINT rknee
		{
			OFFSET -0.043257 -0.383688 -0.004843
			CHANNELS 3 Zrotation Yrotation Xrotation
			JOINT rankle
			{
				OFFSET 0.019056 -0.420046 -0.034562
				CHANNELS 3 Zrotation Yrotation Xrotation
				JOINT rtoe
				{
					OFFSET -0.034840 -0.062106 0.130323
					CHANNELS 3 Zrotation Yrotation Xrotation
					End Site
					{
						OFFSET 0.000000 0.000000 0.000000
					}
				}
			}
		}
	}
	JOINT lowerback
	{
		OFFSET 0.004439 0.124404 -0.038385
		CHANNELS 3 Zrotation Yrotation Xrotation
		JOINT upperback
		{
			OFFSET 0.004488 0.137956 0.026820
			CHANNELS 3 Zrotation Yrotation Xrotation
			JOINT chest
			{
				OFFSET -0.002265 0.056032 0.002855
				CHANNELS 3 Zrotation Yrotation Xrotation
				JOINT lowerneck
				{
					OFFSET -0.013390 0.211636 -0.033468
					CHANNELS 3 Zrotation Yrotation Xrotation
					JOINT upperneck
					{
						OFFSET 0.010113 0.088937 0.050410
						CHANNELS 3 Zrotation Yrotation Xrotation
						End Site
						{
							OFFSET 0.000000 0.000000 0.000000
						}
					}
				}
				JOINT lclavicle
				{
					OFFSET 0.071702 0.114000 -0.018898
					CHANNELS 3 Zrotation Yrotation Xrotation
					JOINT lshoulder
					{
						OFFSET 0.122921 0.045205 -0.019046
						CHANNELS 3 Zrotation Yrotation Xrotation
						JOINT lelbow
						{
							OFFSET 0.255332 -0.015649 -0.022946
							CHANNELS 3 Zrotation Yrotation Xrotation
							JOINT lwrist
							{
								OFFSET 0.265709 0.012698 -0.007375
								CHANNELS 3 Zrotation Yrotation Xrotation
								End Site
								{
									OFFSET 0.000000 0.000000 0.000000
								}
							}
						}
					}
				}
				JOINT rclavicle
				{
					OFFSET -0.082954 0.112472 -0.023707
					CHANNELS 3 Zrotation Yrotation Xrotation
					JOINT rshoulder
					{
						OFFSET -0.113228 0.046853 -0.008472
						CHANNELS 3 Zrotation Yrotation Xrotation
						JOINT relbow
						{
							OFFSET -0.260127 -0.014369 -0.031269
							CHANNELS 3 Zrotation Yrotation Xrotation
							JOINT rwrist
							{
								OFFSET -0.269108 0.006794 -0.006027
								CHANNELS 3 Zrotation Yrotation Xrotation
								End Site
								{
									OFFSET 0.000000 0.000000 0.000000
								}
							}
						}
					}
				}
			}
		}
	}
}
MOTION
Frames: 17
Frame Time: 0.033333
-1.202675 0.280220 0.967614 93.176547 0.655167 83.502041 -1.319535 3.596974 12.967704 -3.512063 -17.969340 11.520189 6.231708 11.572052 -21.261331 0.000000 -0.000000 0.000000 -1.041463 -2.557543 -22.860021 0.568639 -2.955114 5.370490 9.295014 -9.590875 -5.505706 0.000000 -0.000000 0.000000 -0.228809 -4.188619 13.860706 2.288361 -0.719861 -2.899484 1.445276 -3.053514 3.288169 2.232820 6.857209 -5.249035 -4.810026 -0.150371 12.642906 -27.181358 3.637309 -1.181338 -45.617082 -11.083932 8.843954 6.279614 -35.503394 8.764566 -0.548535 -2.474137 3.734901 33.850135 -2.620732 -0.046971 50.028981 2.575316 14.737659 -10.581244 22.143592 -7.131297 5.656278 0.220030 0.723557 
-1.166230 0.276312 0.962720 93.869242 1.080900 83.322293 -0.513207 2.970398 15.136657 -3.599869 -18.791544 12.520090 5.362427 11.726952 -21.810226 0.000000 -0.000000 0.000000 -1.113378 -1.356907 -23.024301 0.847698 -4.557525 5.925402 9.426504 -9.653975 -7.161481 0.000000 -0.000000 0.000000 0.154929 -4.729664 14.027773 2.360865 -0.985688 -2.613122 1.418693 -3.366179 3.428834 2.336513 7.145686 -5.155990 -4.665569 -0.281638 12.267377 -27.055998 2.940845 -1.191868 -45.274414 -11.498481 8.709883 7.387500 -36.018217 7.717372 -0.537351 -2.602282 3.343388 34.091054 -2.233011 0.044927 50.211857 1.997365 14.732057 -10.751935 21.645324 -6.841286 5.770046 0.090851 0.188304 
-1.128267 0.272113 0.959660 93.965357 1.269654 83.684154 -0.199309 2.491543 15.745691 -4.127211 -19.990811 15.794305 4.523660 12.123548 -21.705284 0.000000 -0.000000 0.000000 -0.876855 -0.384045 -24.461880 1.182809 -4.770934 12.100997 7.396312 -10.891116 -6.563341 0.000000 -0.000000 0.000000 0.027887 -5.392132 13.524399 2.748183 -0.735999 -2.189296 1.428047 -3.367100 3.557157 2.326741 7.035737 -5.771949 -4.840473 -0.029642 11.908020 -27.035569 2.924251 -1.141905 -45.329987 -11.621668 8.707229 7.763093 -35.742484 7.813026 -0.950857 -1.509677 1.858631 34.334420 -2.254238 -0.025538 50.054314 1.638557 14.868918 -10.717214 21.051098 -6.657856 6.178169 -0.130770 -0.361005 
-1.076176 0.265380 0.959679 94.639000 1.416400 83.959269 0.517501 2.207196 16.649193 -4.922153 -21.497782 20.063872 2.852664 11.220131 -19.173916 0.000000 -0.000000 0.000000 -0.108405 0.629099 -23.523805 0.979976 -5.288145 16.688831 6.086259 -10.621296 -5.521243 0.000000 -0.000000 0.000000 0.007918 -6.131751 12.727071 3.055650 -0.916956 -2.026603 1.230476 -3.494546 3.379545 2.485311 7.001619 -5.258507 -4.906473 0.071476 12.206723 -27.692683 3.532582 -0.981497 -44.915129 -11.466806 8.547654 7.941018 -36.200636 7.656690 -1.387204 -2.072872 2.479098 34.776054 -2.688787 -0.172543 49.915909 0.998436 14.670345 -10.586297 20.041521 -6.634030 6.738674 -0.628907 -0.403149 
-1.044396 0.261796 0.962392 94.426818 1.714350 84.334617 0.612750 1.426923 15.859030 -5.958470 -21.446653 24.535050 1.471716 11.069131 -16.200681 0.000000 -0.000000 0.000000 0.339862 1.190200 -22.943502 1.413752 -3.994862 17.416405 6.780170 -9.596362 -3.030721 0.000000 -0.000000 0.000000 0.488965 -6.069748 11.914505 3.285296 -0.882913 -1.751256 1.036962 -3.350802 3.314532 2.389404 6.758146 -5.734824 -5.094280 0.188252 12.668071 -28.251807 3.955850 -1.292187 -45.251559 -11.103975 8.952412 7.998467 -35.406230 7.494981 -1.792094 -1.950996 2.488839 34.973121 -3.290373 -0.431156 49.581899 0.885693 14.854501 -10.310221 19.105127 -6.619133 6.847550 0.084229 -0.503933 
-1.001304 0.256780 0.967054 93.220165 1.870147 84.562869 0.701728 1.042161 13.652182 -7.889714 -18.846470 32.149600 -0.390443 9.845874 -8.852794 0.000000 -0.000000 0.000000 1.203067 2.007396 -22.572527 1.947534 -2.608117 20.691110 4.086104 -9.719752 -2.617908 0.000000 -0.000000 0.000000 0.745847 -5.772161 10.639185 3.467593 -0.431381 -1.223481 0.726921 -3.192726 3.599452 2.307758 6.780293 -5.991744 -5.037565 0.708469 12.659755 -28.693232 5.160481 -1.456939 -46.097315 -10.485159 9.460884 8.588742 -35.451616 6.971655 -0.848491 -1.523141 2.003264 34.934084 -3.847316 -0.543773 49.691463 1.078835 14.990391 -10.375280 18.042116 -6.365858 6.361509 -0.563358 -1.191350 
-0.959035 0.251400 0.973005 92.896488 2.323890 83.887250 1.878052 0.974609 10.411864 -10.296147 -16.251285 40.834679 -3.258758 8.047496 3.450809 0.000000 -0.000000 0.000000 2.439232 2.518126 -19.029812 1.888045 -3.076479 20.931160 0.755355 -8.478503 -3.514796 0.000000 -0.000000 0.000000 1.233047 -5.419419 10.960511 3.622108 -0.631007 -0.636836 0.539044 -2.832015 2.898723 1.817845 6.440645 -5.377461 -4.490065 1.175294 11.507358 -28.969761 5.356790 -0.837575 -46.508886 -9.343776 9.372984 8.284321 -34.889649 7.646126 -3.763351 -0.658513 0.578115 34.494832 -3.790223 0.193223 50.096431 1.180369 14.162005 -10.705620 18.242618 -6.168281 7.517213 -1.477727 -2.783303 
-0.921419 0.247547 0.977809 92.204801 2.232147 84.244591 1.700162 0.058714 4.847866 -12.606298 -13.394087 50.125550 -3.029879 7.668481 13.202086 0.000000 -0.000000 0.000000 3.398102 2.170255 -16.820118 1.926222 -1.710199 20.904421 -1.518523 -7.892143 -4.622708 0.000000 -0.000000 0.000000 1.451034 -4.197234 10.627284 3.674355 -0.783732 -0.481196 0.192462 -2.476530 2.531289 1.551871 5.634476 -5.629207 -3.935292 1.397895 11.296003 -29.533718 5.641075 -0.712513 -46.264896 -8.519120 9.613894 7.017155 -34.736223 8.635841 -4.630623 -0.306070 0.209882 34.316063 -3.665203 0.397468 49.972989 1.017512 14.334707 -10.835044 19.226154 -5.910263 7.771926 -0.855629 -3.572541 
-0.884322 0.245073 0.982923 91.119310 1.885292 84.154888 1.489358 -0.621018 0.275643 -13.172061 -9.760524 56.993553 -1.925644 8.474981 13.662392 0.000000 -0.000000 0.000000 4.039788 1.754571 -14.268970 1.775635 -0.404935 20.958197 -2.630195 -7.681132 -6.095321 0.000000 -0.000000 0.000000 1.301506 -2.822596 10.825761 3.495605 -0.434487 -0.736068 0.124005 -2.236166 2.597925 1.406674 4.728356 -5.730511 -3.710249 1.506266 11.076896 -29.648531 5.889913 -0.659751 -46.965820 -7.284599 10.021985 5.840031 -34.837101 9.946998 -3.034121 1.415536 -1.277797 34.020427 -3.475205 0.434254 49.552004 1.217054 14.487391 -10.384202 20.359840 -5.175732 7.216464 -1.347454 -4.166231 
-0.835745 0.242078 0.989465 89.272774 1.180281 82.976713 1.664805 -1.210067 -3.189173 -13.018838 -5.640307 60.342980 1.487235 9.473423 5.056618 0.000000 -0.000000 0.000000 4.269166 1.195262 -8.698299 1.830174 2.189458 19.087263 -2.886962 -8.183734 -7.795164 0.000000 -0.000000 0.000000 1.098625 -0.848438 11.735587 2.916146 -0.075467 -0.849637 -0.158158 -1.262002 3.021477 1.546644 3.638884 -5.435682 -3.584994 1.188608 10.827665 -29.911219 5.987136 -0.718532 -47.506293 -6.151911 9.785731 4.731476 -34.883243 12.344897 -3.310984 0.523981 -0.647160 33.240850 -2.840186 0.155552 49.761421 1.447803 14.397835 -10.464046 21.276647 -4.324009 6.680452 -0.977756 -4.396676 
-0.797731 0.240215 0.993046 88.491194 0.750102 82.318022 2.209817 -0.708217 -7.543249 -11.820186 -2.916231 61.574979 1.191928 10.742079 3.840158 0.000000 -0.000000 0.000000 4.321057 0.430094 -4.687534 1.476051 3.263942 17.807743 -3.058723 -7.693920 -9.897625 0.000000 -0.000000 0.000000 1.087117 0.364991 12.035334 2.516548 -0.110711 -0.981057 -0.453197 -0.738774 3.360400 1.575468 3.431323 -5.248207 -3.509745 0.890801 10.994337 -30.014482 6.136175 -0.802011 -48.131134 -5.025185 9.984372 4.101453 -34.597053 13.120737 -2.489997 0.135889 -0.721116 32.508859 -2.403411 0.159264 49.841566 2.450230 14.117051 -10.135670 21.967556 -3.682535 5.745518 -0.878421 -4.853342 
-0.761552 0.239173 0.995563 87.250105 -0.027567 81.847407 2.354645 -1.336127 -10.232162 -12.091558 -1.651963 59.286195 2.387059 9.636463 -1.751671 0.000000 -0.000000 0.000000 3.726209 -0.342283 -1.319028 1.480004 5.285117 16.821292 -2.889947 -8.006198 -11.658065 0.000000 -0.000000 0.000000 0.781988 1.827757 12.688222 1.983452 0.190315 -1.270718 -0.679019 -0.139024 3.329238 1.770774 3.298257 -5.127577 -3.824789 0.366164 11.160311 -30.244500 6.589933 -0.776439 -48.495446 -4.007042 9.805915 3.607110 -34.306681 14.206950 -3.410096 -0.102525 -0.952042 32.207167 -1.994532 -0.088330 49.504137 3.230993 14.006073 -10.294755 23.016949 -3.751219 5.910250 -1.253772 -4.790202 
-0.725954 0.239074 0.995816 86.093120 -0.622352 81.493730 2.647224 -1.289473 -13.040317 -11.460353 -0.940768 55.378165 2.268947 10.273641 -5.508316 0.000000 -0.000000 0.000000 2.956910 -1.224926 1.813318 1.469061 6.988882 16.226299 -2.339009 -7.671542 -13.802536 0.000000 -0.000000 0.000000 0.766530 2.898646 13.261217 1.402558 0.440883 -1.546661 -0.918250 0.414629 3.496463 1.735961 3.247789 -5.241430 -3.945070 0.105984 10.961401 -30.328313 6.962778 -1.011236 -49.046916 -2.652126 9.966184 2.854586 -34.094731 15.227659 -3.035712 0.112037 -1.254795 31.678753 -1.627937 -0.276089 49.071534 4.265252 13.833287 -10.020900 24.779997 -3.526698 5.575362 -1.385125 -4.855943 
-0.690232 0.239607 0.993649 85.277987 -1.031287 81.232981 3.090386 -1.461730 -15.082218 -10.243034 -0.400309 49.411254 1.966788 11.037889 -7.111501 0.000000 -0.000000 0.000000 2.240920 -2.164687 4.721687 1.329876 8.253452 15.893661 -2.172938 -8.132193 -15.710968 0.000000 -0.000000 0.000000 0.965778 3.942082 13.616885 0.962205 0.474208 -1.368055 -1.186796 0.784325 3.485692 1.736380 3.379716 -5.964853 -4.225387 -0.329906 10.841140 -30.755169 6.951389 -1.227566 -49.297635 -1.379741 10.198702 2.354682 -33.197934 15.630878 -2.524044 0.027170 -1.712754 31.271599 -1.043250 -0.400814 48.399308 5.327818 13.882421 -10.153322 26.243022 -3.935787 4.691667 -0.489926 -5.146817 
-0.655680 0.240780 0.990336 84.781865 -1.286116 81.281020 3.457894 -1.425749 -16.680213 -8.930535 -0.717777 41.565944 1.497793 11.717986 -7.811746 0.000000 -0.000000 0.000000 1.416846 -2.796402 7.517926 1.116942 8.635273 14.802252 -1.752385 -7.267244 -17.101680 0.000000 -0.000000 0.000000 1.253084 4.549058 13.817104 0.431914 0.494131 -1.300162 -1.380421 1.141703 3.415625 1.605340 3.634657 -6.243444 -4.391550 -0.807185 10.561281 -31.154555 6.917470 -1.490240 -49.605339 -0.424189 10.261863 1.997122 -31.874117 15.500796 -2.533299 0.208011 -1.209202 30.925312 -0.502727 -0.223834 47.755479 6.562140 13.459850 -10.434791 27.792205 -4.482193 4.213550 0.238850 -5.102634 
-0.621820 0.242162 0.985311 83.975223 -1.476210 81.918019 3.650580 -0.977907 -17.922506 -7.101600 -0.973269 32.297895 1.612782 12.139602 -7.860342 0.000000 -0.000000 0.000000 1.042458 -2.954349 8.262715 1.106111 10.124718 16.653217 -1.407403 -7.620624 -19.931146 0.000000 -0.000000 0.000000 1.226378 5.130700 13.405931 0.204257 0.872038 -1.172492 -1.547404 1.456141 3.265065 1.893247 3.929189 -6.930171 -4.864428 -1.638900 11.080201 -31.396475 6.998526 -1.919188 -49.986114 0.091586 10.640857 1.618849 -29.870199 15.527071 -2.163926 0.046684 -0.026205 30.755442 -0.007064 -0.694388 46.973657 7.718290 13.647657 -10.591837 27.873902 -5.157993 3.932404 1.686557 -4.749239 
-0.586249 0.244165 0.980358 83.893136 -1.142098 82.136993 3.492444 -0.286082 -18.043072 -4.710481 -2.537469 22.258877 0.467751 12.236795 -6.566382 0.000000 -0.000000 0.000000 0.748889 -3.430438 11.090984 1.138963 10.881925 15.410918 -1.439791 -7.958872 -21.104086 0.000000 -0.000000 0.000000 1.898033 5.154097 13.448842 -0.191103 0.899436 -0.971973 -1.642170 1.622404 3.007939 1.962296 4.174731 -7.615403 -5.102906 -2.009342 10.914298 -31.843077 6.878236 -2.205938 -50.174743 0.976042 10.664679 1.029830 -28.384695 15.180519 -2.048475 0.350709 0.204143 30.645325 0.726610 -0.731644 46.188919 8.978963 13.186521 -10.767582 28.671613 -6.255899 3.184594 1.692069 -3.972316 
